# xmcd
#
# Track frame offsets:
#	150
#	25850
#	43263
#	59790
#	91550
#	111872
#	128529
#	153728
#	179191
#	208211
#	225151
#	243180
#	273335
#
# Disc length: 3866 seconds
#
# Revision: 0
# Processed by: cddbd v1.5.2PL0 Copyright (c) Steve Scherf et al.
# Submitted via: EZCDAudioConverter 2.1.7.1
#
DISCID=b20f180d
DTITLE=Psychic TV - Godstar: Thee Director's Cut 1/2
DYEAR=1985
DGENRE=
TTITLE0=Godstar [Monterey Pop Festival Mix]
TTITLE1=Being Lost
TTITLE2=Godstar [Ready Steady Go Mix]
TTITLE3=Amazing Vibrations
TTITLE4=A Mind Blown Is A Mind Throne
TTITLE5=As Tears Go By
TTITLE6=Godstar [Tangiers Mix]
TTITLE7=Thee Starlit Mire
TTITLE8=Je T'Aime, Moi Non Plus
TTITLE9=Southern Coumfort
TTITLE10=Just Like Arcadia
TTITLE11=Thee Dweller
TTITLE12=Over Painted Smiles (Mysterious Well)
EXTD=
EXTT0=
EXTT1=
EXTT2=
EXTT3=
EXTT4=
EXTT5=
EXTT6=
EXTT7=
EXTT8=
EXTT9=
EXTT10=
EXTT11=
EXTT12=
PLAYORDER=
